{
  "accessors": [
    {
      "bufferView": 2,
      "componentType": 5126,
      "count": 3970,
      "max": [
        0.9916542172431946,
        0.9975757002830505,
        0.9872310161590576
      ],
      "min": [
        -0.9872304797172546,
        -0.9975757002830505,
        -0.9872310161590576
      ],
      "type": "VEC3"
    },
    {
      "bufferView": 2,
      "byteOffset": 47640,
      "componentType": 5126,
      "count": 3970,
      "max": [
        0.9992499947547913,
        1.0,
        1.0
      ],
      "min": [
        -1.0,
        -1.0,
        -1.0
      ],
      "type": "VEC3"
    },
    {
      "bufferView": 1,
      "componentType": 5126,
      "count": 3970,
      "max": [
        1.0000001192092896,
        1.0
      ],
      "min": [
        0.4995867908000946,
        -1.1920928955078125e-07
      ],
      "type": "VEC2"
    },
    {
      "bufferView": 0,
      "componentType": 5125,
      "count": 17826,
      "type": "SCALAR"
    },
    {
      "bufferView": 2,
      "byteOffset": 95280,
      "componentType": 5126,
      "count": 35894,
      "max": [
        0.9510550498962402,
        0.416938841342926,
        0.7492600083351135
      ],
      "min": [
        0.5630432367324829,
        -0.7365370988845825,
        -0.7492600083351135
      ],
      "type": "VEC3"
    },
    {
      "bufferView": 2,
      "byteOffset": 526008,
      "componentType": 5126,
      "count": 35894,
      "max": [
        0.9997214674949646,
        0.9997935891151428,
        0.9998459219932556
      ],
      "min": [
        -0.9999352693557739,
        -0.9999949932098389,
        -0.9998456835746765
      ],
      "type": "VEC3"
    },
    {
      "bufferView": 1,
      "byteOffset": 31760,
      "componentType": 5126,
      "count": 35894,
      "max": [
        0.637665867805481,
        0.770637035369873
      ],
      "min": [
        0.4993380308151245,
        0.3632735013961792
      ],
      "type": "VEC2"
    },
    {
      "bufferView": 0,
      "byteOffset": 71304,
      "componentType": 5125,
      "count": 182898,
      "type": "SCALAR"
    },
    {
      "bufferView": 2,
      "byteOffset": 956736,
      "componentType": 5126,
      "count": 5316,
      "max": [
        0.9705556631088257,
        0.09961192309856415,
        0.6328747868537903
      ],
      "min": [
        0.00337368156760931,
        -0.9290337562561035,
        -0.6328611969947815
      ],
      "type": "VEC3"
    },
    {
      "bufferView": 2,
      "byteOffset": 1020528,
      "componentType": 5126,
      "count": 5316,
      "max": [
        0.9885985851287842,
        0.988510012626648,
        0.9999958276748657
      ],
      "min": [
        -0.9998736381530762,
        -0.9991791248321533,
        -0.9999958276748657
      ],
      "type": "VEC3"
    },
    {
      "bufferView": 1,
      "byteOffset": 318912,
      "componentType": 5126,
      "count": 5316,
      "max": [
        0.7500001788139343,
        0.893656313419342
      ],
      "min": [
        0.5508257150650024,
        0.46874988079071045
      ],
      "type": "VEC2"
    },
    {
      "bufferView": 0,
      "byteOffset": 802896,
      "componentType": 5125,
      "count": 23448,
      "type": "SCALAR"
    }
  ],
  "asset": {
    "extras": {
      "author": "3dblender_bms (https://sketchfab.com/3dblender_bms)",
      "license": "CC-BY-4.0 (http://creativecommons.org/licenses/by/4.0/)",
      "source": "https://sketchfab.com/3d-models/emoji-sad-or-weep-cartoon-067f2a13300249909515955f180b3634",
      "title": "emoji sad or weep cartoon"
    },
    "generator": "Sketchfab-15.44.0",
    "version": "2.0"
  },
  "bufferViews": [
    {
      "buffer": 0,
      "byteLength": 896688,
      "name": "floatBufferViews",
      "target": 34963
    },
    {
      "buffer": 0,
      "byteLength": 361440,
      "byteOffset": 896688,
      "byteStride": 8,
      "name": "floatBufferViews",
      "target": 34962
    },
    {
      "buffer": 0,
      "byteLength": 1084320,
      "byteOffset": 1258128,
      "byteStride": 12,
      "name": "floatBufferViews",
      "target": 34962
    }
  ],
  "buffers": [
    {
      "byteLength": 2342448,
      "uri": "scene.bin"
    }
  ],
  "images": [
    {
      "uri": "textures/Material.055_baseColor.png"
    },
    {
      "uri": "textures/Material.008_baseColor.png"
    }
  ],
  "materials": [
    {
      "doubleSided": true,
      "name": "Material.055",
      "pbrMetallicRoughness": {
        "baseColorTexture": {
          "index": 0
        },
        "metallicFactor": 0.0,
        "roughnessFactor": 0.5
      }
    },
    {
      "doubleSided": true,
      "name": "Material.024",
      "pbrMetallicRoughness": {
        "baseColorFactor": [
          0.0466651,
          0.0152085,
          0.00182116,
          1.0
        ],
        "metallicFactor": 0.0,
        "roughnessFactor": 0.5
      }
    },
    {
      "doubleSided": true,
      "name": "Material.008",
      "pbrMetallicRoughness": {
        "baseColorTexture": {
          "index": 1
        },
        "metallicFactor": 0.0,
        "roughnessFactor": 0.5
      }
    }
  ],
  "meshes": [
    {
      "name": "Object_0",
      "primitives": [
        {
          "attributes": {
            "NORMAL": 1,
            "POSITION": 0,
            "TEXCOORD_0": 2
          },
          "indices": 3,
          "material": 0,
          "mode": 4
        }
      ]
    },
    {
      "name": "Object_1",
      "primitives": [
        {
          "attributes": {
            "NORMAL": 5,
            "POSITION": 4,
            "TEXCOORD_0": 6
          },
          "indices": 7,
          "material": 1,
          "mode": 4
        }
      ]
    },
    {
      "name": "Object_2",
      "primitives": [
        {
          "attributes": {
            "NORMAL": 9,
            "POSITION": 8,
            "TEXCOORD_0": 10
          },
          "indices": 11,
          "material": 2,
          "mode": 4
        }
      ]
    }
  ],
  "nodes": [
    {
      "children": [
        1
      ],
      "matrix": [
        1.0,
        0.0,
        0.0,
        0.0,
        0.0,
        2.220446049250313e-16,
        -1.0,
        0.0,
        0.0,
        1.0,
        2.220446049250313e-16,
        0.0,
        0.0,
        0.0,
        0.0,
        1.0
      ],
      "name": "Sketchfab_model"
    },
    {
      "children": [
        2
      ],
      "name": "root"
    },
    {
      "children": [
        3
      ],
      "matrix": [
        1.0,
        0.0,
        0.0,
        0.0,
        0.0,
        2.220446049250313e-16,
        1.0,
        0.0,
        0.0,
        -1.0,
        2.220446049250313e-16,
        0.0,
        0.0,
        0.0,
        0.0,
        1.0
      ],
      "name": "GLTF_SceneRootNode"
    },
    {
      "children": [
        4,
        5,
        6
      ],
      "matrix": [
        1.0,
        0.0,
        0.0,
        0.0,
        0.0,
        1.0,
        0.0,
        0.0,
        0.0,
        0.0,
        1.0,
        0.0,
        0.0,
        0.0,
        -6.0,
        1.0
      ],
      "name": "Sphere.001_0"
    },
    {
      "mesh": 0,
      "name": "Object_4"
    },
    {
      "mesh": 1,
      "name": "Object_5"
    },
    {
      "mesh": 2,
      "name": "Object_6"
    }
  ],
  "samplers": [
    {
      "magFilter": 9729,
      "minFilter": 9987,
      "wrapS": 10497,
      "wrapT": 10497
    }
  ],
  "scene": 0,
  "scenes": [
    {
      "name": "Sketchfab_Scene",
      "nodes": [
        0
      ]
    }
  ],
  "textures": [
    {
      "sampler": 0,
      "source": 0
    },
    {
      "sampler": 0,
      "source": 1
    }
  ]
}
