{
  "accessors": [
    {
      "bufferView": 2,
      "componentType": 5126,
      "count": 11023,
      "max": [
        0.9899603724479675,
        0.9975767135620117,
        0.9872310161590576
      ],
      "min": [
        -0.9872304797172546,
        -0.9975767135620117,
        -0.9872310161590576
      ],
      "type": "VEC3"
    },
    {
      "bufferView": 2,
      "byteOffset": 132276,
      "componentType": 5126,
      "count": 11023,
      "max": [
        0.99998939037323,
        1.0,
        1.0
      ],
      "min": [
        -1.0,
        -1.0,
        -1.0
      ],
      "type": "VEC3"
    },
    {
      "bufferView": 1,
      "componentType": 5126,
      "count": 11023,
      "max": [
        0.8961138725280762,
        0.9961696863174438
      ],
      "min": [
        0.16270433366298676,
        0.007152915000915527
      ],
      "type": "VEC2"
    },
    {
      "bufferView": 0,
      "componentType": 5125,
      "count": 55344,
      "type": "SCALAR"
    },
    {
      "bufferView": 2,
      "byteOffset": 264552,
      "componentType": 5126,
      "count": 2339,
      "max": [
        0.9582523107528687,
        -0.0057722460478544235,
        0.6400437951087952
      ],
      "min": [
        0.6216915845870972,
        -0.6631068587303162,
        -0.6400424838066101
      ],
      "type": "VEC3"
    },
    {
      "bufferView": 2,
      "byteOffset": 292620,
      "componentType": 5126,
      "count": 2339,
      "max": [
        0.9988713264465332,
        0.972755491733551,
        0.9999018907546997
      ],
      "min": [
        -0.4986139237880707,
        -0.9987610578536987,
        -0.9971786141395569
      ],
      "type": "VEC3"
    },
    {
      "bufferView": 1,
      "byteOffset": 88184,
      "componentType": 5126,
      "count": 2339,
      "max": [
        0.33436599373817444,
        0.8729714155197144
      ],
      "min": [
        0.16376405954360962,
        0.5278486013412476
      ],
      "type": "VEC2"
    },
    {
      "bufferView": 0,
      "byteOffset": 221376,
      "componentType": 5125,
      "count": 11328,
      "type": "SCALAR"
    }
  ],
  "asset": {
    "extras": {
      "author": "3dblender_bms (https://sketchfab.com/3dblender_bms)",
      "license": "CC-BY-4.0 (http://creativecommons.org/licenses/by/4.0/)",
      "source": "https://sketchfab.com/3d-models/emoji-tired-cartoon-4ce48c7bb6354a5fa0fbabe311168168",
      "title": "emoji tired cartoon"
    },
    "generator": "Sketchfab-15.44.0",
    "version": "2.0"
  },
  "bufferViews": [
    {
      "buffer": 0,
      "byteLength": 266688,
      "name": "floatBufferViews",
      "target": 34963
    },
    {
      "buffer": 0,
      "byteLength": 106896,
      "byteOffset": 266688,
      "byteStride": 8,
      "name": "floatBufferViews",
      "target": 34962
    },
    {
      "buffer": 0,
      "byteLength": 320688,
      "byteOffset": 373584,
      "byteStride": 12,
      "name": "floatBufferViews",
      "target": 34962
    }
  ],
  "buffers": [
    {
      "byteLength": 694272,
      "uri": "scene.bin"
    }
  ],
  "extensionsUsed": [
    "KHR_materials_specular"
  ],
  "images": [
    {
      "uri": "textures/Material.043_baseColor.png"
    }
  ],
  "materials": [
    {
      "doubleSided": true,
      "name": "Material.043",
      "pbrMetallicRoughness": {
        "baseColorTexture": {
          "index": 0
        },
        "metallicFactor": 0.0,
        "roughnessFactor": 0.464
      }
    },
    {
      "doubleSided": true,
      "extensions": {
        "KHR_materials_specular": {
          "specularColorFactor": [
            1.0,
            1.0,
            1.0
          ],
          "specularFactor": 0.0
        }
      },
      "name": "Material.024",
      "pbrMetallicRoughness": {
        "baseColorFactor": [
          0.0466651,
          0.0152085,
          0.00182116,
          1.0
        ]
      }
    }
  ],
  "meshes": [
    {
      "name": "Object_0",
      "primitives": [
        {
          "attributes": {
            "NORMAL": 1,
            "POSITION": 0,
            "TEXCOORD_0": 2
          },
          "indices": 3,
          "material": 0,
          "mode": 4
        }
      ]
    },
    {
      "name": "Object_1",
      "primitives": [
        {
          "attributes": {
            "NORMAL": 5,
            "POSITION": 4,
            "TEXCOORD_0": 6
          },
          "indices": 7,
          "material": 1,
          "mode": 4
        }
      ]
    }
  ],
  "nodes": [
    {
      "children": [
        1
      ],
      "matrix": [
        1.0,
        0.0,
        0.0,
        0.0,
        0.0,
        2.220446049250313e-16,
        -1.0,
        0.0,
        0.0,
        1.0,
        2.220446049250313e-16,
        0.0,
        0.0,
        0.0,
        0.0,
        1.0
      ],
      "name": "Sketchfab_model"
    },
    {
      "children": [
        2
      ],
      "name": "root"
    },
    {
      "children": [
        3
      ],
      "matrix": [
        1.0,
        0.0,
        0.0,
        0.0,
        0.0,
        2.220446049250313e-16,
        1.0,
        0.0,
        0.0,
        -1.0,
        2.220446049250313e-16,
        0.0,
        0.0,
        0.0,
        0.0,
        1.0
      ],
      "name": "GLTF_SceneRootNode"
    },
    {
      "children": [
        4,
        5
      ],
      "matrix": [
        1.0,
        0.0,
        0.0,
        0.0,
        0.0,
        1.0,
        0.0,
        0.0,
        0.0,
        0.0,
        1.0,
        0.0,
        0.0,
        0.0,
        -4.0,
        1.0
      ],
      "name": "Sphere.013_0"
    },
    {
      "mesh": 0,
      "name": "Object_4"
    },
    {
      "mesh": 1,
      "name": "Object_5"
    }
  ],
  "samplers": [
    {
      "magFilter": 9729,
      "minFilter": 9987,
      "wrapS": 10497,
      "wrapT": 10497
    }
  ],
  "scene": 0,
  "scenes": [
    {
      "name": "Sketchfab_Scene",
      "nodes": [
        0
      ]
    }
  ],
  "textures": [
    {
      "sampler": 0,
      "source": 0
    }
  ]
}
