{
  "accessors": [
    {
      "bufferView": 2,
      "componentType": 5126,
      "count": 9088,
      "max": [
        0.9837914705276489,
        -3.0159380435943604,
        0.9961394667625427
      ],
      "min": [
        -0.9840613603591919,
        -4.984062194824219,
        -0.9961394667625427
      ],
      "type": "VEC3"
    },
    {
      "bufferView": 2,
      "byteOffset": 109056,
      "componentType": 5126,
      "count": 9088,
      "max": [
        0.9999966025352478,
        1.0,
        1.0
      ],
      "min": [
        -1.0,
        -1.0,
        -1.0
      ],
      "type": "VEC3"
    },
    {
      "bufferView": 1,
      "componentType": 5126,
      "count": 9088,
      "max": [
        1.0000001192092896,
        1.000000238418579
      ],
      "min": [
        0.4999999701976776,
        0.0
      ],
      "type": "VEC2"
    },
    {
      "bufferView": 0,
      "componentType": 5125,
      "count": 52608,
      "type": "SCALAR"
    },
    {
      "bufferView": 2,
      "byteOffset": 218112,
      "componentType": 5126,
      "count": 2871,
      "max": [
        1.0775721073150635,
        -3.440678834915161,
        0.14726240932941437
      ],
      "min": [
        0.66827791929245,
        -4.55932092666626,
        -0.6227011680603027
      ],
      "type": "VEC3"
    },
    {
      "bufferView": 2,
      "byteOffset": 252564,
      "componentType": 5126,
      "count": 2871,
      "max": [
        0.9990134239196777,
        0.9994897246360779,
        0.99979168176651
      ],
      "min": [
        -0.9796855449676514,
        -0.9994900226593018,
        -0.9997637867927551
      ],
      "type": "VEC3"
    },
    {
      "bufferView": 1,
      "byteOffset": 72704,
      "componentType": 5126,
      "count": 2871,
      "max": [
        0.5890035033226013,
        0.5468142628669739
      ],
      "min": [
        0.4999999403953552,
        0.27130699157714844
      ],
      "type": "VEC2"
    },
    {
      "bufferView": 0,
      "byteOffset": 210432,
      "componentType": 5125,
      "count": 16560,
      "type": "SCALAR"
    }
  ],
  "asset": {
    "extras": {
      "author": "3dblender_bms (https://sketchfab.com/3dblender_bms)",
      "license": "CC-BY-4.0 (http://creativecommons.org/licenses/by/4.0/)",
      "source": "https://sketchfab.com/3d-models/emoji-angry-cartoon-emoticon-smiley-bdbf91ab737f4d44812d933ba8101463",
      "title": "emoji angry cartoon Emoticon Smiley"
    },
    "generator": "Sketchfab-15.44.0",
    "version": "2.0"
  },
  "bufferViews": [
    {
      "buffer": 0,
      "byteLength": 276672,
      "name": "floatBufferViews",
      "target": 34963
    },
    {
      "buffer": 0,
      "byteLength": 95672,
      "byteOffset": 276672,
      "byteStride": 8,
      "name": "floatBufferViews",
      "target": 34962
    },
    {
      "buffer": 0,
      "byteLength": 287016,
      "byteOffset": 372344,
      "byteStride": 12,
      "name": "floatBufferViews",
      "target": 34962
    }
  ],
  "buffers": [
    {
      "byteLength": 659360,
      "uri": "scene.bin"
    }
  ],
  "images": [
    {
      "uri": "textures/Material.009_baseColor.png"
    }
  ],
  "materials": [
    {
      "doubleSided": true,
      "name": "Material.009",
      "pbrMetallicRoughness": {
        "baseColorTexture": {
          "index": 0
        },
        "metallicFactor": 0.0,
        "roughnessFactor": 0.8211145618000169
      }
    },
    {
      "doubleSided": true,
      "name": "Material.024",
      "pbrMetallicRoughness": {
        "baseColorFactor": [
          0.0466651,
          0.0152085,
          0.00182116,
          1.0
        ],
        "metallicFactor": 0.0,
        "roughnessFactor": 0.9953199975531598
      }
    }
  ],
  "meshes": [
    {
      "name": "Sphere.007_Material.009_0",
      "primitives": [
        {
          "attributes": {
            "NORMAL": 1,
            "POSITION": 0,
            "TEXCOORD_0": 2
          },
          "indices": 3,
          "material": 0,
          "mode": 4
        }
      ]
    },
    {
      "name": "Sphere.007_Material.024_0",
      "primitives": [
        {
          "attributes": {
            "NORMAL": 5,
            "POSITION": 4,
            "TEXCOORD_0": 6
          },
          "indices": 7,
          "material": 1,
          "mode": 4
        }
      ]
    }
  ],
  "nodes": [
    {
      "children": [
        1
      ],
      "matrix": [
        1.0,
        0.0,
        0.0,
        0.0,
        0.0,
        2.220446049250313e-16,
        -1.0,
        0.0,
        0.0,
        1.0,
        2.220446049250313e-16,
        0.0,
        0.0,
        0.0,
        0.0,
        1.0
      ],
      "name": "Sketchfab_model"
    },
    {
      "children": [
        2
      ],
      "matrix": [
        0.009999999776482582,
        0.0,
        0.0,
        0.0,
        0.0,
        0.0,
        0.009999999776482582,
        0.0,
        0.0,
        -0.009999999776482582,
        0.0,
        0.0,
        0.0,
        0.0,
        0.0,
        1.0
      ],
      "name": "c140359086c44ee78f241988c5eaeb62.fbx"
    },
    {
      "children": [
        3
      ],
      "name": "RootNode"
    },
    {
      "children": [
        4,
        5
      ],
      "matrix": [
        100.0,
        0.0,
        0.0,
        0.0,
        0.0,
        -1.629206793918314e-05,
        -99.99999999999868,
        0.0,
        0.0,
        99.99999999999868,
        -1.629206793918314e-05,
        0.0,
        0.0,
        0.0,
        0.0,
        1.0
      ],
      "name": "Sphere.007"
    },
    {
      "mesh": 0,
      "name": "Sphere.007_Material.009_0"
    },
    {
      "mesh": 1,
      "name": "Sphere.007_Material.024_0"
    }
  ],
  "samplers": [
    {
      "magFilter": 9729,
      "minFilter": 9987,
      "wrapS": 10497,
      "wrapT": 10497
    }
  ],
  "scene": 0,
  "scenes": [
    {
      "name": "Sketchfab_Scene",
      "nodes": [
        0
      ]
    }
  ],
  "textures": [
    {
      "sampler": 0,
      "source": 0
    }
  ]
}
