{
  "accessors": [
    {
      "bufferView": 2,
      "componentType": 5126,
      "count": 2864,
      "max": [
        0.990662693977356,
        0.9975767135620117,
        -1.0127689838409424
      ],
      "min": [
        -0.9872304797172546,
        -0.9975767135620117,
        -2.9872310161590576
      ],
      "type": "VEC3"
    },
    {
      "bufferView": 2,
      "byteOffset": 34368,
      "componentType": 5126,
      "count": 2864,
      "max": [
        0.9998852014541626,
        1.0,
        1.0
      ],
      "min": [
        -1.0,
        -1.0,
        -1.0
      ],
      "type": "VEC3"
    },
    {
      "bufferView": 1,
      "componentType": 5126,
      "count": 2864,
      "max": [
        1.0000001192092896,
        1.0
      ],
      "min": [
        0.4999999701976776,
        -1.1920928955078125e-07
      ],
      "type": "VEC2"
    },
    {
      "bufferView": 0,
      "componentType": 5125,
      "count": 15126,
      "type": "SCALAR"
    },
    {
      "bufferView": 2,
      "byteOffset": 68736,
      "componentType": 5126,
      "count": 1100,
      "max": [
        0.958597719669342,
        0.3316253423690796,
        -1.3444621562957764
      ],
      "min": [
        0.5324841141700745,
        -0.752790629863739,
        -2.655327796936035
      ],
      "type": "VEC3"
    },
    {
      "bufferView": 2,
      "byteOffset": 81936,
      "componentType": 5126,
      "count": 1100,
      "max": [
        0.9994021654129028,
        0.9980337023735046,
        0.9998607635498047
      ],
      "min": [
        -0.7131698727607727,
        -0.9826619029045105,
        -0.9996612668037415
      ],
      "type": "VEC3"
    },
    {
      "bufferView": 1,
      "byteOffset": 22912,
      "componentType": 5126,
      "count": 1100,
      "max": [
        0.6181821823120117,
        0.7814861536026001
      ],
      "min": [
        0.4999999701976776,
        0.39006227254867554
      ],
      "type": "VEC2"
    },
    {
      "bufferView": 0,
      "byteOffset": 60504,
      "componentType": 5125,
      "count": 5250,
      "type": "SCALAR"
    },
    {
      "bufferView": 2,
      "byteOffset": 95136,
      "componentType": 5126,
      "count": 802,
      "max": [
        0.9278140664100647,
        -0.08206863701343536,
        -1.3889236450195313
      ],
      "min": [
        0.6096944808959961,
        -0.3802259862422943,
        -2.6267595291137695
      ],
      "type": "VEC3"
    },
    {
      "bufferView": 2,
      "byteOffset": 104760,
      "componentType": 5126,
      "count": 802,
      "max": [
        0.9954963326454163,
        0.9975258111953735,
        0.9999325275421143
      ],
      "min": [
        -0.9951865673065186,
        -0.9969614744186401,
        -0.9999325275421143
      ],
      "type": "VEC3"
    },
    {
      "bufferView": 1,
      "byteOffset": 31712,
      "componentType": 5126,
      "count": 802,
      "max": [
        0.6085988879203796,
        1.0
      ],
      "min": [
        0.0,
        0.544922947883606
      ],
      "type": "VEC2"
    },
    {
      "bufferView": 0,
      "byteOffset": 81504,
      "componentType": 5125,
      "count": 4416,
      "type": "SCALAR"
    }
  ],
  "asset": {
    "extras": {
      "author": "3dblender_bms (https://sketchfab.com/3dblender_bms)",
      "license": "CC-BY-4.0 (http://creativecommons.org/licenses/by/4.0/)",
      "source": "https://sketchfab.com/3d-models/emoji-happy-cartoon-bb9ca64167e8448aa3f40adad4cfb774",
      "title": "emoji happy cartoon"
    },
    "generator": "Sketchfab-15.44.0",
    "version": "2.0"
  },
  "bufferViews": [
    {
      "buffer": 0,
      "byteLength": 99168,
      "name": "floatBufferViews",
      "target": 34963
    },
    {
      "buffer": 0,
      "byteLength": 38128,
      "byteOffset": 99168,
      "byteStride": 8,
      "name": "floatBufferViews",
      "target": 34962
    },
    {
      "buffer": 0,
      "byteLength": 114384,
      "byteOffset": 137296,
      "byteStride": 12,
      "name": "floatBufferViews",
      "target": 34962
    }
  ],
  "buffers": [
    {
      "byteLength": 251680,
      "uri": "scene.bin"
    }
  ],
  "images": [
    {
      "uri": "textures/Material.020_baseColor.png"
    }
  ],
  "materials": [
    {
      "doubleSided": true,
      "name": "Material.020",
      "pbrMetallicRoughness": {
        "baseColorTexture": {
          "index": 0
        },
        "metallicFactor": 0.0
      }
    },
    {
      "doubleSided": true,
      "name": "Material.024",
      "pbrMetallicRoughness": {
        "baseColorFactor": [
          0.04666509999999998,
          0.015208499999999998,
          0.0018211599999999996,
          1.0
        ],
        "metallicFactor": 0.0,
        "roughnessFactor": 0.5
      }
    },
    {
      "doubleSided": true,
      "name": "Material.010",
      "pbrMetallicRoughness": {
        "baseColorFactor": [
          0.8,
          0.8,
          0.8,
          1.0
        ],
        "metallicFactor": 0.0,
        "roughnessFactor": 0.5
      }
    }
  ],
  "meshes": [
    {
      "name": "Object_0",
      "primitives": [
        {
          "attributes": {
            "NORMAL": 1,
            "POSITION": 0,
            "TEXCOORD_0": 2
          },
          "indices": 3,
          "material": 0,
          "mode": 4
        }
      ]
    },
    {
      "name": "Object_1",
      "primitives": [
        {
          "attributes": {
            "NORMAL": 5,
            "POSITION": 4,
            "TEXCOORD_0": 6
          },
          "indices": 7,
          "material": 1,
          "mode": 4
        }
      ]
    },
    {
      "name": "Object_2",
      "primitives": [
        {
          "attributes": {
            "NORMAL": 9,
            "POSITION": 8,
            "TEXCOORD_0": 10
          },
          "indices": 11,
          "material": 2,
          "mode": 4
        }
      ]
    }
  ],
  "nodes": [
    {
      "children": [
        1
      ],
      "matrix": [
        1.0,
        0.0,
        0.0,
        0.0,
        0.0,
        2.220446049250313e-16,
        -1.0,
        0.0,
        0.0,
        1.0,
        2.220446049250313e-16,
        0.0,
        0.0,
        0.0,
        0.0,
        1.0
      ],
      "name": "Sketchfab_model"
    },
    {
      "children": [
        2
      ],
      "name": "root"
    },
    {
      "children": [
        3
      ],
      "matrix": [
        1.0,
        0.0,
        0.0,
        0.0,
        0.0,
        2.220446049250313e-16,
        1.0,
        0.0,
        0.0,
        -1.0,
        2.220446049250313e-16,
        0.0,
        0.0,
        0.0,
        0.0,
        1.0
      ],
      "name": "GLTF_SceneRootNode"
    },
    {
      "children": [
        4,
        5,
        6
      ],
      "name": "Sphere.004_0"
    },
    {
      "mesh": 0,
      "name": "Object_4"
    },
    {
      "mesh": 1,
      "name": "Object_5"
    },
    {
      "mesh": 2,
      "name": "Object_6"
    }
  ],
  "samplers": [
    {
      "magFilter": 9729,
      "minFilter": 9987,
      "wrapS": 10497,
      "wrapT": 10497
    }
  ],
  "scene": 0,
  "scenes": [
    {
      "name": "Sketchfab_Scene",
      "nodes": [
        0
      ]
    }
  ],
  "textures": [
    {
      "sampler": 0,
      "source": 0
    }
  ]
}
